<svg width="1893" height="1157" viewBox="0 0 1893 1157" fill="none" xmlns="http://www.w3.org/2000/svg">
<path d="M13.9085 116.578V776.171C25.4058 778.329 42.1629 776.389 49.7998 776.389H167.627C203.658 776.389 233.275 789.988 267.579 797.444C296.775 803.79 329.275 807.454 359.095 803.419C376.966 801.001 390.361 795.282 408.714 799.578C430.588 804.699 448.389 810.282 471.631 809.536C494.546 808.801 511.952 798.815 533.261 792.892C548.297 788.712 569.261 801.669 583.023 805.411C599.88 809.995 613.038 809.42 629.782 805.553C654.647 799.81 689.854 781.667 714.863 796.022C742.629 811.959 765.557 812.976 797.513 809.11C831.925 804.946 865.373 799.027 899.897 796.306C932.857 793.709 965.768 794.314 998.848 794.314C1011.24 794.314 1038.31 801.009 1038.31 784.641C1038.31 772.617 1030.22 766.046 1028.16 754.766C1022.74 725.124 1024.6 696.339 1022.3 666.563C1021.75 659.478 1010.52 612.503 1024.59 612.503C1047.14 612.503 1067.17 610.667 1089.51 607.382C1118.23 603.157 1146.9 603.794 1175.59 598.562C1195.86 594.864 1215.91 592.018 1236.5 592.018C1257.63 592.018 1278.7 587.158 1299.99 586.896C1321.72 586.629 1343.47 586.896 1365.2 586.896C1386.17 586.896 1406.9 586.275 1427.69 589.457C1452.33 593.229 1473.27 601.872 1496.75 609.658C1523.82 618.636 1561.55 612.503 1589.98 612.503C1606.71 612.503 1602.96 626.918 1600.56 640.529C1600.13 643.022 1594.36 667.299 1599.42 665.709C1614.33 661.024 1632.82 663.718 1648.47 663.718C1663.29 663.718 1674.38 670.251 1688.51 672.538C1698.32 674.128 1706.6 672.655 1714.67 679.082C1733.55 694.109 1748.71 720.195 1748.71 744.238C1748.71 758.868 1737.84 777.927 1732.12 791.327C1728.73 799.267 1726.21 801.997 1735.26 801.997C1752.36 801.997 1761.43 796.872 1777.16 789.335C1798.81 778.966 1830.79 777.805 1854.52 782.649C1865.75 784.941 1879.97 799.183 1879.97 785.352C1879.97 777.242 1884.79 781.803 1889.7 777.527C1891.68 775.802 1890.27 766.897 1890.27 764.724V724.037V478.066V78.7358C1890.27 66.4876 1892.09 52.2263 1889.98 40.1828C1888.35 30.8549 1878.71 20.5454 1873.83 12.4417C1872.53 10.2961 1873.22 4.99707 1871.68 3.62141C1868.21 0.513751 1847.08 2.74851 1842.37 3.19463C1831.63 4.21161 1827.44 6.47264 1817.2 3.33689C1814.41 2.48314 1810.8 3.05236 1807.91 3.05236H627.494H36.5014C33.9624 3.05236 14.9874 1.21578 14.0514 4.47499C12.2363 10.7955 13.9085 20.1675 13.9085 26.6679V116.578Z" fill="#131313"/>
<path d="M13.9085 776.389C13.9085 556.452 13.9085 336.515 13.9085 116.578C13.9085 86.6077 13.9085 56.6378 13.9085 26.6679C13.9085 20.1675 12.2363 10.7955 14.0514 4.47499C14.9874 1.21578 33.9624 3.05236 36.5014 3.05236C233.499 3.05236 430.496 3.05236 627.494 3.05236C1020.96 3.05236 1414.44 3.05236 1807.91 3.05236C1810.8 3.05236 1814.41 2.48314 1817.2 3.33689C1827.44 6.47264 1831.63 4.21161 1842.37 3.19463C1847.08 2.74851 1868.21 0.513751 1871.68 3.62141C1873.22 4.99707 1872.53 10.2961 1873.83 12.4417C1878.71 20.5454 1888.35 30.8549 1889.98 40.1828C1892.09 52.2263 1890.27 66.4876 1890.27 78.7358C1890.27 211.846 1890.27 344.956 1890.27 478.066C1890.27 560.056 1890.27 642.046 1890.27 724.037C1890.27 737.599 1890.27 751.162 1890.27 764.724C1890.27 766.897 1891.68 775.802 1889.7 777.527C1884.79 781.803 1879.97 777.242 1879.97 785.352C1879.97 799.183 1865.75 784.941 1854.52 782.649C1830.79 777.805 1798.81 778.966 1777.16 789.335C1761.43 796.872 1752.36 801.997 1735.26 801.997C1726.21 801.997 1728.73 799.267 1732.12 791.327C1737.84 777.927 1748.71 758.868 1748.71 744.238C1748.71 720.195 1733.55 694.109 1714.67 679.082C1706.6 672.655 1698.32 674.128 1688.51 672.538C1674.38 670.251 1663.29 663.718 1648.47 663.718C1632.82 663.718 1614.33 661.024 1599.42 665.709C1594.36 667.299 1600.13 643.022 1600.56 640.529C1602.96 626.918 1606.71 612.503 1589.98 612.503C1561.55 612.503 1523.82 618.636 1496.75 609.658C1473.27 601.872 1452.33 593.229 1427.69 589.457C1406.9 586.275 1386.17 586.896 1365.2 586.896C1343.47 586.896 1321.72 586.629 1299.99 586.896C1278.7 587.158 1257.63 592.018 1236.5 592.018C1215.91 592.018 1195.86 594.864 1175.59 598.562C1146.9 603.794 1118.23 603.157 1089.51 607.382C1067.17 610.667 1047.14 612.503 1024.59 612.503C1010.52 612.503 1021.75 659.478 1022.3 666.563C1024.6 696.339 1022.74 725.124 1028.16 754.765C1030.22 766.046 1038.31 772.617 1038.31 784.641C1038.31 801.009 1011.24 794.314 998.848 794.314C965.768 794.314 932.857 793.709 899.897 796.306C865.373 799.027 831.925 804.946 797.513 809.11C765.557 812.976 742.629 811.959 714.863 796.022C689.854 781.667 654.647 799.81 629.782 805.553C613.038 809.42 599.88 809.995 583.023 805.411C569.262 801.669 548.297 788.712 533.261 792.892C511.952 798.815 494.546 808.801 471.631 809.536C448.389 810.282 430.588 804.699 408.714 799.578C390.361 795.282 376.966 801.001 359.095 803.419C329.275 807.454 296.775 803.79 267.579 797.444C233.275 789.988 203.658 776.389 167.627 776.389C128.351 776.389 89.0754 776.389 49.7998 776.389C35.2748 776.389 -12.2422 783.406 6.1868 755.904" stroke="white" stroke-width="3" stroke-linecap="round"/>
</svg>
