<svg width="1893" height="945" viewBox="0 0 1893 945" fill="none" xmlns="http://www.w3.org/2000/svg">
<path d="M13.9085 135.273V902.488C25.4058 904.998 42.1629 902.742 49.7998 902.742H167.627C203.658 902.742 233.275 918.559 267.579 927.232C296.775 934.614 329.275 938.875 359.095 934.182C376.966 931.37 390.361 924.717 408.714 929.714C430.588 935.671 448.389 942.165 471.631 941.298C494.546 940.442 511.952 928.827 533.261 921.937C548.297 917.075 569.261 932.146 583.023 936.499C599.88 941.831 613.038 941.162 629.782 936.664C654.647 929.985 689.854 908.881 714.863 925.578C742.629 944.115 765.557 945.299 797.513 940.801C831.925 935.958 865.373 929.073 899.897 925.909C932.857 922.887 965.768 923.592 998.848 923.592C1011.24 923.592 1038.31 931.379 1038.31 912.34C1038.31 898.354 1030.22 890.711 1028.16 877.59C1022.74 843.112 1024.6 809.63 1022.3 774.996C1021.75 766.755 1010.52 712.116 1024.59 712.116C1047.14 712.116 1067.17 709.98 1089.51 706.159C1118.23 701.244 1146.9 701.985 1175.59 695.899C1195.86 691.598 1215.91 688.288 1236.5 688.288C1257.63 688.288 1278.7 682.635 1299.99 682.33C1321.72 682.02 1343.47 682.33 1365.2 682.33C1386.17 682.33 1406.9 681.608 1427.69 685.309C1452.33 689.696 1473.27 699.75 1496.75 708.806C1523.82 719.249 1561.55 712.116 1589.98 712.116C1606.71 712.116 1602.96 728.882 1600.56 744.714C1600.13 747.615 1594.36 775.852 1599.42 774.003C1614.33 768.553 1632.82 771.687 1648.47 771.687C1663.29 771.687 1674.38 779.285 1688.51 781.946C1698.32 783.795 1706.6 782.082 1714.67 789.558C1733.55 807.036 1748.71 837.379 1748.71 865.345C1748.71 882.362 1737.84 904.53 1732.12 920.117C1728.73 929.353 1726.21 932.527 1735.26 932.527C1752.36 932.527 1761.43 926.567 1777.16 917.8C1798.81 905.739 1830.79 904.389 1854.52 910.023C1865.75 912.689 1879.97 929.255 1879.97 913.167C1879.97 903.734 1884.79 909.04 1889.7 904.066C1891.68 902.059 1890.27 891.701 1890.27 889.173V841.848V555.743V91.2564C1890.27 77.0097 1892.09 60.4215 1889.98 46.4128C1888.35 35.5629 1878.71 23.5713 1873.83 14.1454C1872.53 11.6497 1873.22 5.48608 1871.68 3.88597C1868.21 0.271248 1847.08 2.87064 1842.37 3.38955C1831.63 4.57246 1827.44 7.20241 1817.2 3.55502C1814.41 2.56197 1810.8 3.22407 1807.91 3.22407H627.494H36.5014C33.9624 3.22407 14.9874 1.08783 14.0514 4.87882C12.2363 12.2306 13.9085 23.1318 13.9085 30.6928V135.273Z" fill="#131313"/>
<path d="M13.9085 902.742C13.9085 646.919 13.9085 391.096 13.9085 135.273C13.9085 100.413 13.9085 65.5527 13.9085 30.6928C13.9085 23.1318 12.2363 12.2306 14.0514 4.87882C14.9874 1.08783 33.9624 3.22407 36.5014 3.22407C233.499 3.22407 430.496 3.22407 627.494 3.22407C1020.96 3.22407 1414.44 3.22407 1807.91 3.22407C1810.8 3.22407 1814.41 2.56197 1817.2 3.55502C1827.44 7.20241 1831.63 4.57246 1842.37 3.38955C1847.08 2.87064 1868.21 0.271248 1871.68 3.88597C1873.22 5.48608 1872.53 11.6497 1873.83 14.1454C1878.71 23.5713 1888.35 35.5629 1889.98 46.4129C1892.09 60.4215 1890.27 77.0097 1890.27 91.2564C1890.27 246.085 1890.27 400.914 1890.27 555.743C1890.27 651.111 1890.27 746.479 1890.27 841.848C1890.27 857.623 1890.27 873.398 1890.27 889.173C1890.27 891.701 1891.68 902.059 1889.7 904.066C1884.79 909.04 1879.97 903.734 1879.97 913.167C1879.97 929.255 1865.75 912.689 1854.52 910.023C1830.79 904.389 1798.81 905.739 1777.16 917.8C1761.43 926.567 1752.36 932.527 1735.26 932.527C1726.21 932.527 1728.73 929.353 1732.12 920.117C1737.84 904.53 1748.71 882.362 1748.71 865.345C1748.71 837.379 1733.55 807.036 1714.67 789.558C1706.6 782.082 1698.32 783.795 1688.51 781.946C1674.38 779.285 1663.29 771.687 1648.47 771.687C1632.82 771.687 1614.33 768.553 1599.42 774.003C1594.36 775.852 1600.13 747.614 1600.56 744.714C1602.96 728.882 1606.71 712.116 1589.98 712.116C1561.55 712.116 1523.82 719.249 1496.75 708.806C1473.27 699.75 1452.33 689.696 1427.69 685.309C1406.9 681.608 1386.17 682.33 1365.2 682.33C1343.47 682.33 1321.72 682.02 1299.99 682.33C1278.7 682.635 1257.63 688.288 1236.5 688.288C1215.91 688.288 1195.86 691.598 1175.59 695.899C1146.9 701.985 1118.23 701.244 1089.51 706.159C1067.17 709.98 1047.14 712.116 1024.59 712.116C1010.52 712.116 1021.75 766.756 1022.3 774.996C1024.6 809.63 1022.74 843.112 1028.16 877.59C1030.22 890.711 1038.31 898.354 1038.31 912.34C1038.31 931.379 1011.24 923.592 998.848 923.592C965.768 923.592 932.857 922.887 899.897 925.909C865.373 929.073 831.925 935.958 797.513 940.801C765.557 945.299 742.629 944.115 714.863 925.578C689.854 908.881 654.647 929.985 629.782 936.664C613.038 941.162 599.88 941.831 583.023 936.499C569.262 932.146 548.297 917.075 533.261 921.937C511.952 928.827 494.546 940.442 471.631 941.298C448.389 942.165 430.588 935.671 408.714 929.714C390.361 924.717 376.966 931.37 359.095 934.182C329.275 938.875 296.775 934.614 267.579 927.232C233.275 918.559 203.658 902.742 167.627 902.742C128.351 902.742 89.0754 902.742 49.7998 902.742C35.2748 902.742 -12.2422 910.903 6.1868 878.914" stroke="white" stroke-width="3" stroke-linecap="round"/>
</svg>
